{"title":"Scooby Doo Stage Fright 2013 WEBRip 480p x264 AAC - VYTO [P2PDL]","uid":8633581,"size":267287677,"categoryP":"video","categoryS":"movies","magnet":"?xt=urn:btih:e18a42dd854e396c1979a58ff55495953c1e6719&amp;dn=Scooby+Doo+Stage+Fright+2013+WEBRip+480p+x264+AAC+-+VYTO+%5BP2PDL%5D&amp;tr=udp%3A%2F%2Ftracker.openbittorrent.com%3A80&amp;tr=udp%3A%2F%2Fopen.demonii.com%3A1337&amp;tr=udp%3A%2F%2Ftracker.coppersurfer.tk%3A6969&amp;tr=udp%3A%2F%2Fexodus.desync.com%3A6969","seeders":1,"leechers":0,"uploader":"ValidusVyto","files":-1,"time":1372695375,"description":"_______ Visit us at our Semi Public Bittorrent Community ________\n  &lt;a href=&quot;\nhttp://p2pdl.com&quot; rel=&quot;nofollow&quot; target=&quot;_NEW&quot;&gt;\nhttp://p2pdl.com&lt;/a&gt;  _____________________________ &lt;a href=&quot; http://p2pdl.com&quot; rel=&quot;nofollow&quot; target=&quot;_NEW&quot;&gt; http://p2pdl.com&lt;/a&gt;\n\n\nScooby Doo Stage Fright 2013 WEBRip 480p x264 AAC - VYTO [P2PDL]\n\n\nGenre: Animation\nPlot: Scooby-Doo, Shaggy and the Mystery Inc. crew as they head to Chicago for a talent show.\nUnlucky for them, the competition is frightful at this talent contest as the show is being\nbroadcast from an opera house with a history of horrors and a particularly vengeful phantom\nthat has cursed the show's production. \nDirector: Victor Cook\nStars: Frank Welker, Mindy Cohn, Matthew Lillard, Wayne Brady, Peter Macnicol.\nRated: N/a\n\n\nFormat                         : MPEG-4\nFile size                      : 251 MiB\nDuration                       : 1h 18mn\nOverall bit rate               : 449 Kbps\nSource                         : 720p.WEB-DL.H264-HDB\n\nVideo\nFormat                         : AVC\nBit rate                       : 406 Kbps\nWidth                          : 720 pixels\nHeight                         : 400 pixels\nDisplay aspect ratio           : 16:9\nFrame rate mode                : Constant\nFrame rate                     : 23.976 fps\nStream size                    : 227 MiB (90%)\nWriting library                : x264 core 130 r2273\n\nAudio\nFormat                         : AAC\nBit rate mode                  : Variable\nBit rate                       : 40.0 Kbps\nChannel(s)                     : 2 channels\nChannel positions              : Front: L R\nSampling rate                  : 44.1 KHz\nStream size                    : 22.4 MiB (9%)\nLanguage                       : English\n\nSubtitle                       : N/a\n\n &lt;a href=&quot;\nhttp://ultraimg.com/images/7kyW.png&quot; rel=&quot;nofollow&quot; target=&quot;_NEW&quot;&gt;\nhttp://ultraimg.com/images/7kyW.png&lt;/a&gt; &lt;a href=&quot;\nhttp://ultraimg.com/images/1IfoA.png&quot; rel=&quot;nofollow&quot; target=&quot;_NEW&quot;&gt;\nhttp://ultraimg.com/images/1IfoA.png&lt;/a&gt; &lt;a href=&quot;\nhttp://ultraimg.com/images/8nSrd.png&quot; rel=&quot;nofollow&quot; target=&quot;_NEW&quot;&gt;\nhttp://ultraimg.com/images/8nSrd.png&lt;/a&gt; &lt;a href=&quot;\nhttp://ultraimg.com/images/NWeHx.png&quot; rel=&quot;nofollow&quot; target=&quot;_NEW&quot;&gt;\nhttp://ultraimg.com/images/NWeHx.png&lt;/a&gt; &lt;a href=&quot;\nhttp://ultraimg.com/images/MkOBA.png&quot; rel=&quot;nofollow&quot; target=&quot;_NEW&quot;&gt;\nhttp://ultraimg.com/images/MkOBA.png&lt;/a&gt; &lt;a href=&quot;\nhttp://ultraimg.com/images/AauHM.png&quot; rel=&quot;nofollow&quot; target=&quot;_NEW&quot;&gt;\nhttp://ultraimg.com/images/AauHM.png&lt;/a&gt; &lt;a href=&quot;\nhttp://ultraimg.com/images/1GLwU.png&quot; rel=&quot;nofollow&quot; target=&quot;_NEW&quot;&gt;\nhttp://ultraimg.com/images/1GLwU.png&lt;/a&gt;\n\n\n----------------------------------------------------------------------------------------------------\n\n\nEncoded using revolutionary 10bit encoding, which enables us to provide you more crispier \nand sharper images at small sizes, just make sure you follow our instructions without a fault.\nRecommend to you to use latest version of VLC player. Install K-Lite Codec Pack or shark007 codecs\nin case of any kind of problem in playback (For non-VLC Media Player users). Alternatively, install\nCore AVC codecs, the fastest decoder that there is coupled with Community Center Codec Pack and play\non Windows Media Player Classic. Check sample to be sure.\nEnjoy!\n\nEncoder Notes:Looking For Early Access To Anything You Can Provide DVDScr, R5, DVDR, BluRay, Direct\nAudio, Music Releases and Seedboxes. We require dedicated servers, so as to do more \nand fast releases of movies.\nIf You Got anything to offer please contact us at &quot;&lt;a class=&quot;__cf_email__&quot; href=&quot;/cdn-cgi/l/email-protection&quot; data-cfemail=&quot;6a0905041e0b091e2a1a581a0e0644090507&quot;&gt;[email&amp;#160;protected]&lt;/a&gt;&lt;script cf-hash='f9e31' type=&quot;text/javascript&quot;&gt;\n/* &lt;![CDATA[ */!function(){try{var t=&quot;currentScript&quot;in document?document.currentScript:function(){for(var t=document.getElementsByTagName(&quot;script&quot;),e=t.length;e--;)if(t[e].getAttribute(&quot;cf-hash&quot;))return t[e]}();if(t&amp;&amp;t.previousSibling){var e,r,n,i,c=t.previousSibling,a=c.getAttribute(&quot;data-cfemail&quot;);if(a){for(e=&quot;&quot;,r=parseInt(a.substr(0,2),16),n=2;a.length-n;n+=2)i=parseInt(a.substr(n,2),16)^r,e+=String.fromCharCode(i);e=document.createTextNode(e),c.parentNode.replaceChild(e,c)}}}catch(u){}}();/* ]]&gt; */&lt;/script&gt;&quot;.\n\nFace book Fan Page:   &lt;a href=&quot;\nhttp://fbl.me/BC&quot; rel=&quot;nofollow&quot; target=&quot;_NEW&quot;&gt;\nhttp://fbl.me/BC&lt;/a&gt;","torrent":{"xt":"urn:btih:e18a42dd854e396c1979a58ff55495953c1e6719","amp;dn":"Scooby+Doo+Stage+Fright+2013+WEBRip+480p+x264+AAC+-+VYTO+%5BP2PDL%5D","amp;tr":["udp%3A%2F%2Ftracker.openbittorrent.com%3A80","udp%3A%2F%2Fopen.demonii.com%3A1337","udp%3A%2F%2Ftracker.coppersurfer.tk%3A6969","udp%3A%2F%2Fexodus.desync.com%3A6969"],"infoHash":"e18a42dd854e396c1979a58ff55495953c1e6719","infoHashBuffer":{"type":"Buffer","data":[225,138,66,221,133,78,57,108,25,121,165,143,245,84,149,149,60,30,103,25]},"announce":[],"urlList":[]}}